<svg xmlns="http://www.w3.org/2000/svg" style="display: none;"><symbol id="jigsaw" viewBox="0 0 512 512"><title>jigsaw</title><g> <g> <path d="M509.072,75.558c-3.906-3.904-10.236-3.904-14.143,0c-20.44,20.441-35.663,46.452-44.02,75.221 c-0.542,1.862-1.139,3.775-1.772,5.682c-10.318,30.971-28.525,53.609-29.297,54.559c-0.3,0.369-0.618,0.723-0.946,1.052 c-4.857,4.855-12.549,5.246-17.894,0.907c-2.453-1.991-4.01-4.679-4.632-7.55c-0.019-0.07-0.032-0.141-0.051-0.211 c-0.757-3.782,0.112-7.861,2.729-11.084c0.151-0.187,15.177-18.89,23.887-43.748c11.892-33.937,6.722-63.329-14.95-85.002 c-9.754-9.753-22.582-15.316-36.124-15.664c-13.741-0.365-26.526,4.682-36.019,14.174c-9.745,9.743-14.771,22.87-14.152,36.963 c0.324,7.378-5.415,13.645-12.793,13.97c-7.376,0.329-13.646-5.416-13.97-12.793c-0.939-21.373,7.068-42.179,21.972-57.082 c20.435-20.434,50.592-27.304,78.697-17.927c15.164,5.057,31.543,1.248,42.736-9.945c3.905-3.905,3.905-10.237,0-14.143 c-3.906-3.904-10.236-3.904-14.143,0c-5.801,5.802-14.332,7.762-22.266,5.115c-35.341-11.789-73.342-3.071-99.168,22.755 c-18.858,18.86-28.995,45.141-27.81,72.104c0.357,8.12,3.606,15.435,8.702,21.01l-13.774,13.775 c-1.317-2.251-2.923-4.337-4.782-6.196l-0.605-0.605c-11.938-11.936-31.36-11.937-43.298,0.001 c-11.937,11.938-11.937,31.36,0,43.297l0.607,0.606c1.859,1.859,3.943,3.464,6.194,4.781l-16.859,16.858 c-2.683,2.683-4.437,5.937-5.309,9.372c-3.434,0.872-6.688,2.626-9.371,5.308l-16.858,16.858 c-1.316-2.251-2.923-4.336-4.781-6.195l-0.605-0.605c-11.938-11.938-31.36-11.937-43.298,0c-11.937,11.938-11.937,31.36,0,43.298 l0.605,0.605c1.859,1.858,3.944,3.465,6.195,4.781l-13.777,13.777c-5.58-5.098-12.903-8.347-21.026-8.705 c-26.955-1.191-53.243,8.951-72.102,27.811C4.976,328.567-3.744,366.566,8.044,401.91c2.646,7.933,0.687,16.465-5.115,22.266 c-3.905,3.905-3.905,10.237,0,14.143c3.906,3.904,10.236,3.904,14.143,0c11.193-11.194,15.005-27.57,9.945-42.736 c-9.376-28.109-2.506-58.265,17.928-78.697c14.901-14.902,35.685-22.913,57.081-21.973c7.378,0.325,13.117,6.593,12.794,13.97 c-0.325,7.379-6.585,13.104-13.97,12.794c-14.083-0.616-27.218,4.404-36.964,14.15c-19.479,19.479-18.809,51.843,1.491,72.144 c15.69,15.69,33.521,21.188,50.809,21.187c40.179-0.003,77.416-29.696,77.946-30.127c5.734-4.653,14.186-3.774,18.84,1.96 c4.338,5.345,3.947,13.037-0.901,17.887c-0.336,0.336-0.691,0.656-1.058,0.953c-0.949,0.771-23.595,18.98-54.56,29.297 c-1.878,0.626-3.79,1.222-5.681,1.771c-28.77,8.358-54.78,23.58-75.22,44.021c-3.905,3.905-3.905,10.236,0,14.142 c1.953,1.953,4.512,2.929,7.07,2.929c2.56,0,5.119-0.977,7.072-2.929c18.064-18.064,41.114-31.535,66.657-38.957 c2.14-0.621,4.302-1.296,6.424-2.003c34.379-11.454,59.775-31.878,60.84-32.741c0.896-0.727,1.766-1.511,2.592-2.335 c12.121-12.124,13.106-31.314,2.293-44.638c-0.071-0.088-0.147-0.169-0.219-0.256l13.847-13.847 c1.317,2.251,2.923,4.337,4.782,6.195l0.605,0.605c11.938,11.936,31.36,11.937,43.298-0.001c11.937-11.938,11.937-31.36,0-43.297 l-0.605-0.605c-1.859-1.859-3.945-3.465-6.196-4.782l16.859-16.858c2.683-2.683,4.437-5.937,5.309-9.372 c3.434-0.872,6.688-2.626,9.371-5.308l22.043-22.043c3.788-3.788,5.282-9.36,3.898-14.541c-1.375-5.153-5.422-9.216-10.563-10.604 c-1.798-0.484-3.385-1.405-4.716-2.737l-0.605-0.605c-4.14-4.139-4.14-10.874,0-15.013c4.138-4.139,10.873-4.141,15.013,0 l0.605,0.605c1.332,1.331,2.253,2.918,2.738,4.718c1.387,5.139,5.449,9.186,10.603,10.561c5.182,1.386,10.753-0.111,14.541-3.898 l19.022-19.022c0.089,0.074,0.174,0.153,0.265,0.226c6.187,5.021,13.637,7.498,21.058,7.498c8.563,0,17.086-3.298,23.581-9.792 c0.815-0.816,1.601-1.688,2.333-2.59c0.864-1.063,21.287-26.454,32.744-60.845c0.717-2.152,1.39-4.313,2.002-6.42 c7.421-25.543,20.892-48.593,38.957-66.658C512.977,85.795,512.977,79.463,509.072,75.558z M181.554,383.479 c-0.624,0.5-62.842,49.54-102.034,10.348c-12.503-12.503-13.172-32.178-1.492-43.858c5.732-5.73,13.554-8.68,21.943-8.313 c12.84,0.578,24.313-6.225,30.358-16.635l7.382,7.382c-2.281,1.326-4.396,2.949-6.282,4.834l-0.598,0.6 c-5.783,5.782-8.969,13.471-8.969,21.648c0,8.179,3.186,15.867,8.968,21.649c11.938,11.936,31.358,11.936,43.304-0.006 l0.597-0.599c1.883-1.882,3.505-3.994,4.831-6.276l6.273,6.274C184.355,381.386,182.923,382.368,181.554,383.479z M286.73,301.397 l-22.043,22.043c-3.789,3.789-5.283,9.362-3.898,14.544c1.376,5.153,5.424,9.215,10.562,10.601 c1.798,0.484,3.385,1.406,4.717,2.738l0.605,0.605c4.139,4.139,4.139,10.874,0.001,15.013c-4.141,4.137-10.875,4.139-15.014,0 l-0.607-0.606c-1.331-1.331-2.252-2.917-2.736-4.715c-1.386-5.139-5.447-9.187-10.601-10.563 c-5.185-1.387-10.755,0.109-14.544,3.898l-22.043,22.043c-0.067,0.067-0.156,0.095-0.244,0.101 c-0.047-0.012-0.093-0.026-0.14-0.038c-0.053-0.018-0.111-0.021-0.153-0.063l-22.091-22.09c-2.855-2.856-6.721-4.409-10.67-4.409 c-1.302,0-2.613,0.169-3.9,0.516c-5.163,1.39-9.222,5.456-10.591,10.614c-0.476,1.789-1.425,3.434-2.755,4.763l-0.598,0.6 c-4.14,4.137-10.875,4.14-15.015,0c-2.005-2.005-3.109-4.671-3.109-7.507c0-2.835,1.104-5.501,3.116-7.512l0.597-0.599 c1.344-1.343,2.945-2.269,4.759-2.749c5.156-1.368,9.223-5.425,10.613-10.587c1.398-5.19-0.092-10.774-3.89-14.574l-22.068-22.067 c-0.148-0.148-0.148-0.389,0-0.537l22.036-22.036c0.002-0.003,0.004-0.005,0.007-0.007c3.788-3.788,5.282-9.36,3.898-14.541 c-1.375-5.153-5.422-9.216-10.563-10.604c-1.798-0.484-3.385-1.405-4.716-2.737l-0.605-0.605 c-2.005-2.005-3.109-4.671-3.109-7.506c0-2.836,1.104-5.502,3.109-7.507s4.671-3.109,7.506-3.109c2.836,0,5.502,1.104,7.507,3.109 l0.605,0.605c1.332,1.331,2.253,2.918,2.737,4.716c1.386,5.139,5.447,9.186,10.601,10.563c5.181,1.38,10.754-0.109,14.544-3.898 l22.043-22.043c0.148-0.148,0.389-0.148,0.537,0l16.625,16.624c-1.813,1.173-3.507,2.537-5.036,4.066l-0.605,0.605 c-11.937,11.937-11.937,31.359,0,43.298c5.782,5.782,13.471,8.967,21.648,8.967c8.179,0,15.867-3.185,21.649-8.967l0.605-0.605 c1.549-1.55,2.909-3.229,4.074-5.028l16.641,16.641C286.878,301.009,286.878,301.249,286.73,301.397z M377.009,211.12 l-16.857,16.856c-1.316-2.251-2.923-4.336-4.781-6.195l-0.605-0.605c-11.938-11.938-31.36-11.937-43.298,0 c-11.937,11.938-11.937,31.36,0,43.298l0.605,0.605c1.859,1.858,3.945,3.465,6.195,4.781l-16.858,16.858 c-0.148,0.148-0.389,0.148-0.537,0l-21.557-21.556c-3.717-3.716-8.991-5.216-14.114-4.006c-5.091,1.201-9.116,4.873-10.771,9.825 c-0.52,1.559-1.381,2.946-2.559,4.124l-0.605,0.605c-4.139,4.14-10.874,4.138-15.013,0.001c-4.139-4.14-4.139-10.875,0-15.014 l0.605-0.605c1.179-1.179,2.566-2.04,4.125-2.561c4.951-1.653,8.624-5.681,9.824-10.772c1.207-5.121-0.292-10.397-4.008-14.112 l-21.53-21.53c-0.148-0.148-0.148-0.389,0-0.537l22.043-22.043c3.789-3.789,5.283-9.362,3.898-14.544 c-1.376-5.153-5.424-9.215-10.562-10.601c-1.797-0.484-3.385-1.406-4.717-2.738l-0.605-0.605 c-4.139-4.139-4.139-10.874-0.001-15.013c4.14-4.138,10.874-4.14,15.014,0l0.605,0.605c1.332,1.332,2.254,2.919,2.738,4.716 c1.386,5.138,5.447,9.186,10.6,10.562c5.182,1.385,10.754-0.108,14.545-3.897l22.043-22.043c0.148-0.148,0.389-0.148,0.537,0 l21.53,21.53c3.719,3.717,8.994,5.215,14.116,4.007c5.092-1.201,9.117-4.874,10.769-9.824c0.521-1.559,1.382-2.946,2.555-4.119 l0.611-0.611c2.005-2.005,4.671-3.109,7.506-3.109c2.836,0,5.502,1.104,7.507,3.11c2.005,2.005,3.109,4.671,3.109,7.507 c0,2.835-1.104,5.501-3.109,7.506l-0.604,0.604c-1.18,1.179-2.568,2.04-4.127,2.561c-4.95,1.653-8.623,5.68-9.824,10.771 c-1.208,5.12,0.29,10.396,4.007,14.115l21.555,21.555c0.04,0.04,0.042,0.095,0.06,0.145c0.013,0.051,0.027,0.101,0.04,0.152 C377.102,210.966,377.076,211.053,377.009,211.12z M383.511,181.533c-1.116,1.375-2.102,2.814-2.964,4.3l-6.045-6.045 c1.813-1.172,3.507-2.536,5.037-4.065l0.605-0.605c11.937-11.938,11.937-31.36,0-43.297c-5.782-5.783-13.471-8.969-21.649-8.969 s-15.866,3.186-21.643,8.962l-0.611,0.61c-1.529,1.529-2.894,3.223-4.066,5.037l-7.135-7.135 c10.399-6.049,17.191-17.522,16.627-30.35c-0.369-8.42,2.583-16.213,8.313-21.942c5.578-5.578,13.208-8.511,21.363-8.323 c8.395,0.216,16.383,3.701,22.495,9.813C433.023,118.71,383.988,180.937,383.511,181.533z"/> </g> </g><g> <g> <path d="M127.662,113.53L90.386,76.254c-3.906-3.904-10.236-3.904-14.143,0c-3.905,3.905-3.905,10.237,0,14.143l37.277,37.276 c1.953,1.952,4.512,2.929,7.071,2.929s5.118-0.977,7.071-2.929C131.567,123.768,131.567,117.436,127.662,113.53z"/> </g> </g><g> <g> <path d="M152.809,138.677c-1.859-1.86-4.439-2.93-7.069-2.93c-2.631,0-5.21,1.069-7.07,2.93c-1.86,1.861-2.93,4.44-2.93,7.07 c0,2.64,1.069,5.21,2.93,7.069c1.861,1.87,4.44,2.931,7.07,2.931s5.21-1.061,7.069-2.931c1.86-1.859,2.931-4.439,2.931-7.069 S154.67,140.547,152.809,138.677z"/> </g> </g><g> <g> <path d="M95.046,164.922c-0.001,0-0.003,0-0.004,0l-29.97,0.013c-5.523,0.002-9.998,4.481-9.996,10.004 c0.002,5.521,4.479,9.996,10,9.996c0.001,0,0.003,0,0.004,0l29.97-0.013c5.523-0.002,9.998-4.481,9.996-10.004 C105.044,169.397,100.567,164.922,95.046,164.922z"/> </g> </g><g> <g> <path d="M184.955,65.083c-0.002-5.521-4.479-9.996-10-9.996c-0.001,0-0.003,0-0.004,0c-5.522,0.002-9.998,4.481-9.996,10.004 l0.013,31.889c0.002,5.521,4.479,9.996,10,9.996c0.001,0,0.003,0,0.004,0c5.522-0.002,9.998-4.481,9.996-10.004L184.955,65.083z"/> </g> </g><g> <g> <path d="M435.756,421.581l-37.275-37.276c-3.906-3.904-10.236-3.904-14.143,0c-3.905,3.905-3.905,10.237,0,14.143l37.276,37.276 c1.953,1.952,4.512,2.929,7.071,2.929s5.118-0.977,7.071-2.929C439.661,431.819,439.661,425.487,435.756,421.581z"/> </g> </g><g> <g> <path d="M372.08,357.907c-1.86-1.86-4.44-2.931-7.07-2.931s-5.21,1.07-7.07,2.931c-1.859,1.859-2.93,4.439-2.93,7.069 s1.07,5.21,2.93,7.07c1.86,1.86,4.44,2.93,7.07,2.93s5.21-1.069,7.07-2.93c1.859-1.86,2.93-4.44,2.93-7.07 S373.94,359.766,372.08,357.907z"/> </g> </g><g> <g> <path d="M446.924,327.043c-0.001,0-0.003,0-0.004,0l-29.97,0.013c-5.523,0.002-9.998,4.481-9.996,10.004 c0.002,5.521,4.479,9.996,10,9.996c0.001,0,0.003,0,0.004,0l29.97-0.013c5.523-0.002,9.998-4.481,9.996-10.004 C456.922,331.518,452.446,327.043,446.924,327.043z"/> </g> </g><g> <g> <path d="M347.032,414.998c-0.001-5.522-4.478-9.996-10-9.996c-0.001,0-0.003,0-0.004,0c-5.522,0.002-9.998,4.481-9.996,10.004 l0.013,31.889c0.002,5.521,4.479,9.996,10,9.996c0.001,0,0.003,0,0.004,0c5.522-0.002,9.998-4.481,9.996-10.004L347.032,414.998z"/> </g> </g></symbol><symbol id="jigsaw-1" viewBox="0 0 512.00025 512"><title>jigsaw-1</title><path d="M 187.828125 391.257812 C 187.140625 391.816406 118.292969 446.734375 72.449219 400.890625 C 56.046875 384.488281 55.375 358.46875 70.957031 342.890625 C 78.695312 335.152344 89.15625 331.164062 100.410156 331.65625 C 113.316406 332.226562 124.242188 322.222656 124.808594 309.3125 C 125.039062 304.023438 123.496094 299.070312 120.703125 295.023438 C 99.957031 296.386719 80.285156 305.148438 65.628906 319.804688 C 41.832031 343.601562 35.113281 378.230469 45.285156 408.738281 C 49.09375 420.152344 46.265625 432.730469 37.753906 441.238281 L 91.605469 493.695312 C 109.566406 478.320312 130.742188 467.121094 153.5625 460.492188 C 155.570312 459.90625 157.589844 459.277344 159.613281 458.605469 C 192.285156 447.71875 216.308594 428.402344 217.3125 427.585938 C 217.957031 427.0625 218.5625 426.515625 219.136719 425.945312 C 227.5 417.578125 228.355469 404.066406 220.738281 394.679688 C 212.59375 384.644531 197.863281 383.113281 187.828125 391.257812 Z M 187.828125 391.257812 " style=" stroke:none;fill-rule:nonzero;fill:rgb(98.823529%,77.647059%,61.568627%);fill-opacity:1;"/><path d="M 443.503906 37.753906 C 434.996094 46.265625 422.417969 49.09375 411.003906 45.285156 C 380.496094 35.109375 345.867188 41.832031 322.070312 65.628906 C 307.105469 80.59375 298.28125 100.796875 297.210938 122.03125 C 300.808594 123.972656 304.957031 125 309.335938 124.808594 C 322.242188 124.238281 332.246094 113.316406 331.679688 100.40625 C 331.183594 89.152344 335.171875 78.691406 342.910156 70.957031 C 358.492188 55.375 384.507812 56.042969 400.910156 72.445312 C 446.753906 118.289062 391.835938 187.136719 391.277344 187.828125 C 383.136719 197.859375 384.667969 212.59375 394.699219 220.734375 C 404.089844 228.355469 417.597656 227.5 425.964844 219.132812 C 426.539062 218.5625 427.085938 217.957031 427.605469 217.3125 C 428.421875 216.308594 447.742188 192.285156 458.625 159.613281 C 459.300781 157.589844 459.929688 155.570312 460.515625 153.5625 C 467.292969 130.222656 478.84375 108.59375 494.757812 90.375 Z M 443.503906 37.753906 " style=" stroke:none;fill-rule:nonzero;fill:rgb(98.823529%,77.647059%,61.568627%);fill-opacity:1;"/><path d="M 149.960938 271.738281 C 152.6875 269.011719 151.484375 264.320312 147.765625 263.320312 C 144.402344 262.414062 141.222656 260.636719 138.582031 257.996094 L 137.976562 257.390625 C 129.925781 249.339844 129.925781 236.289062 137.976562 228.238281 C 146.027344 220.1875 159.082031 220.1875 167.132812 228.238281 L 167.738281 228.84375 C 170.378906 231.484375 172.152344 234.664062 173.058594 238.027344 C 174.0625 241.746094 178.753906 242.945312 181.476562 240.222656 L 203.519531 218.179688 C 207.574219 214.125 214.144531 214.125 218.199219 218.179688 L 239.730469 239.710938 C 242.363281 242.339844 241.347656 246.859375 237.816406 248.039062 C 234.882812 249.019531 232.125 250.675781 229.789062 253.011719 L 229.183594 253.617188 C 221.132812 261.667969 221.132812 274.722656 229.183594 282.773438 C 237.234375 290.824219 250.285156 290.824219 258.335938 282.773438 L 258.941406 282.167969 C 261.28125 279.832031 262.9375 277.070312 263.917969 274.136719 C 265.09375 270.605469 269.613281 269.59375 272.246094 272.226562 L 293.800781 293.78125 C 297.855469 297.835938 297.855469 304.40625 293.800781 308.460938 L 271.757812 330.503906 C 269.035156 333.226562 270.234375 337.917969 273.953125 338.921875 C 277.316406 339.828125 280.496094 341.601562 283.136719 344.242188 L 283.742188 344.847656 C 291.792969 352.898438 291.792969 365.953125 283.742188 374.003906 C 275.691406 382.054688 262.640625 382.054688 254.585938 374.003906 L 253.984375 373.398438 C 251.339844 370.757812 249.566406 367.578125 248.660156 364.214844 C 247.65625 360.492188 242.964844 359.292969 240.242188 362.019531 L 218.199219 384.0625 C 214.144531 388.113281 207.574219 388.113281 203.519531 384.0625 L 181.429688 361.96875 C 178.695312 359.238281 173.996094 360.453125 173.003906 364.1875 C 172.105469 367.578125 170.324219 370.789062 167.660156 373.449219 L 167.054688 374.054688 C 159.003906 382.105469 145.953125 382.105469 137.902344 374.054688 C 129.851562 366.003906 129.851562 352.949219 137.902344 344.898438 L 138.503906 344.292969 C 141.167969 341.632812 144.375 339.851562 147.769531 338.949219 C 151.5 337.960938 152.714844 333.257812 149.984375 330.527344 L 127.917969 308.460938 C 123.863281 304.40625 123.863281 297.832031 127.917969 293.777344 L 149.460938 272.238281 Z M 149.960938 271.738281 " style=" stroke:none;fill-rule:nonzero;fill:rgb(100%,100%,100%);fill-opacity:1;"/><path d="M 271.707031 271.6875 L 293.800781 293.78125 C 297.855469 297.835938 304.425781 297.835938 308.480469 293.78125 L 330.523438 271.738281 C 333.246094 269.011719 332.046875 264.320312 328.328125 263.320312 C 324.964844 262.414062 321.785156 260.636719 319.144531 257.996094 L 318.539062 257.390625 C 310.488281 249.339844 310.488281 236.289062 318.539062 228.238281 C 326.589844 220.1875 339.644531 220.1875 347.695312 228.238281 L 348.296875 228.84375 C 350.941406 231.484375 352.714844 234.664062 353.621094 238.027344 C 354.625 241.746094 359.316406 242.945312 362.039062 240.222656 L 384.082031 218.179688 C 388.136719 214.125 388.136719 207.554688 384.082031 203.5 L 362.527344 181.945312 C 359.894531 179.3125 360.910156 174.792969 364.4375 173.613281 C 367.375 172.636719 370.132812 170.976562 372.46875 168.640625 L 373.074219 168.035156 C 381.125 159.984375 381.125 146.933594 373.074219 138.882812 C 365.023438 130.832031 351.96875 130.832031 343.917969 138.882812 L 343.3125 139.484375 C 340.976562 141.824219 339.320312 144.582031 338.339844 147.515625 C 337.160156 151.046875 332.644531 152.058594 330.011719 149.429688 L 308.480469 127.898438 C 304.425781 123.84375 297.855469 123.84375 293.800781 127.898438 L 272.257812 149.4375 L 271.757812 149.941406 C 269.035156 152.664062 264.34375 151.464844 263.339844 147.746094 C 262.433594 144.382812 260.660156 141.203125 258.019531 138.5625 L 257.414062 137.957031 C 249.363281 129.90625 236.308594 129.90625 228.257812 137.957031 C 220.207031 146.007812 220.207031 159.058594 228.257812 167.109375 L 228.863281 167.714844 C 231.503906 170.355469 234.683594 172.132812 238.046875 173.039062 C 241.765625 174.042969 242.964844 178.730469 240.242188 181.457031 L 218.199219 203.5 C 214.144531 207.554688 214.144531 214.125 218.199219 218.179688 L 240.265625 240.246094 " style=" stroke:none;fill-rule:nonzero;fill:rgb(100%,100%,100%);fill-opacity:1;"/><path d="M 272.246094 272.226562 C 269.613281 269.59375 265.097656 270.609375 263.917969 274.136719 C 262.9375 277.074219 261.277344 279.832031 258.941406 282.167969 L 258.335938 282.773438 C 250.285156 290.824219 237.234375 290.824219 229.183594 282.773438 C 221.128906 274.722656 221.128906 261.667969 229.183594 253.617188 L 229.785156 253.011719 C 232.125 250.675781 234.882812 249.019531 237.816406 248.039062 C 241.347656 246.859375 242.359375 242.339844 239.730469 239.710938 L 232.503906 232.484375 L 186.996094 277.996094 C 171.53125 293.460938 171.53125 318.535156 186.996094 334 L 227.625 374.632812 L 240.242188 362.015625 C 242.964844 359.292969 247.65625 360.492188 248.660156 364.214844 C 249.566406 367.578125 251.339844 370.757812 253.980469 373.398438 L 254.585938 374.003906 C 262.636719 382.054688 275.691406 382.054688 283.742188 374.003906 C 291.792969 365.949219 291.792969 352.898438 283.742188 344.847656 L 283.136719 344.242188 C 280.496094 341.601562 277.316406 339.828125 273.953125 338.921875 C 270.234375 337.917969 269.03125 333.226562 271.757812 330.503906 L 293.800781 308.460938 C 297.855469 304.40625 297.855469 297.832031 293.800781 293.777344 Z M 272.246094 272.226562 " style=" stroke:none;fill-rule:nonzero;fill:rgb(62.745098%,89.803922%,34.117647%);fill-opacity:1;"/><path d="M 362.527344 181.945312 C 359.894531 179.3125 360.910156 174.796875 364.4375 173.617188 C 367.375 172.636719 370.132812 170.980469 372.46875 168.640625 L 373.074219 168.039062 C 381.125 159.984375 381.125 146.933594 373.074219 138.882812 C 365.023438 130.832031 351.96875 130.832031 343.917969 138.882812 L 343.3125 139.488281 C 340.976562 141.824219 339.316406 144.582031 338.339844 147.515625 C 337.160156 151.046875 332.640625 152.0625 330.007812 149.429688 L 316.660156 136.078125 L 267.597656 185.136719 C 252.132812 200.601562 252.132812 225.675781 267.597656 241.140625 L 314.359375 287.902344 L 330.523438 271.738281 C 333.246094 269.015625 332.046875 264.324219 328.328125 263.320312 C 324.960938 262.414062 321.785156 260.640625 319.144531 258 L 318.539062 257.394531 C 310.488281 249.34375 310.488281 236.289062 318.539062 228.238281 C 326.589844 220.1875 339.640625 220.1875 347.691406 228.238281 L 348.296875 228.84375 C 350.9375 231.484375 352.710938 234.664062 353.621094 238.027344 C 354.621094 241.746094 359.3125 242.945312 362.039062 240.222656 L 384.082031 218.179688 C 388.132812 214.125 388.132812 207.554688 384.082031 203.5 Z M 362.527344 181.945312 " style=" stroke:none;fill-rule:nonzero;fill:rgb(100%,36.470588%,36.470588%);fill-opacity:1;"/><path d="M 509.070312 75.550781 C 505.164062 71.644531 498.835938 71.644531 494.929688 75.550781 C 474.488281 95.988281 459.265625 122 450.910156 150.769531 C 450.367188 152.632812 449.769531 154.546875 449.136719 156.453125 C 438.820312 187.421875 420.613281 210.0625 419.839844 211.011719 C 419.539062 211.378906 419.222656 211.734375 418.894531 212.0625 C 414.035156 216.917969 406.34375 217.308594 401 212.96875 C 398.546875 210.980469 396.988281 208.292969 396.367188 205.421875 C 396.347656 205.351562 396.335938 205.277344 396.316406 205.210938 C 395.558594 201.425781 396.429688 197.347656 399.046875 194.125 C 399.195312 193.9375 414.222656 175.234375 422.933594 150.378906 C 434.824219 116.441406 429.65625 87.046875 407.984375 65.375 C 398.230469 55.621094 385.402344 50.058594 371.859375 49.710938 C 358.117188 49.347656 345.332031 54.394531 335.839844 63.886719 C 326.09375 73.628906 321.070312 86.753906 321.6875 100.847656 C 322.011719 108.226562 316.273438 114.492188 308.894531 114.816406 C 301.519531 115.148438 295.25 109.402344 294.925781 102.023438 C 293.984375 80.652344 301.992188 59.847656 316.898438 44.941406 C 337.332031 24.507812 367.488281 17.640625 395.59375 27.015625 C 410.757812 32.074219 427.136719 28.265625 438.328125 17.070312 C 442.234375 13.167969 442.234375 6.835938 438.328125 2.929688 C 434.421875 -0.976562 428.09375 -0.976562 424.1875 2.929688 C 418.386719 8.730469 409.855469 10.691406 401.921875 8.042969 C 366.578125 -3.746094 328.578125 4.972656 302.753906 30.796875 C 283.894531 49.65625 273.757812 75.9375 274.941406 102.902344 C 275.300781 111.023438 278.546875 118.335938 283.644531 123.914062 L 269.871094 137.6875 C 268.554688 135.4375 266.949219 133.351562 265.089844 131.492188 L 264.484375 130.886719 C 252.546875 118.949219 233.125 118.949219 221.1875 130.886719 C 209.25 142.824219 209.25 162.246094 221.1875 174.183594 L 221.792969 174.789062 C 223.652344 176.648438 225.734375 178.253906 227.988281 179.570312 L 211.128906 196.429688 C 208.445312 199.113281 206.691406 202.367188 205.820312 205.800781 C 202.382812 206.671875 199.128906 208.425781 196.449219 211.109375 L 179.589844 227.96875 C 178.273438 225.714844 176.667969 223.632812 174.808594 221.773438 L 174.203125 221.167969 C 162.265625 209.230469 142.84375 209.230469 130.90625 221.167969 C 118.96875 233.105469 118.96875 252.527344 130.90625 264.464844 L 131.511719 265.070312 C 133.371094 266.929688 135.453125 268.535156 137.707031 269.851562 L 123.929688 283.628906 C 118.347656 278.53125 111.027344 275.28125 102.902344 274.921875 C 75.949219 273.730469 49.660156 283.875 30.800781 302.734375 C 4.976562 328.558594 -3.746094 366.558594 8.042969 401.902344 C 10.691406 409.835938 8.730469 418.367188 2.929688 424.167969 C -0.976562 428.070312 -0.976562 434.402344 2.929688 438.308594 C 6.835938 442.214844 13.164062 442.214844 17.070312 438.308594 C 28.265625 427.117188 32.078125 410.738281 27.015625 395.574219 C 17.640625 367.464844 24.511719 337.308594 44.945312 316.878906 C 59.847656 301.976562 80.628906 293.964844 102.027344 294.902344 C 109.402344 295.230469 115.144531 301.496094 114.820312 308.875 C 114.496094 316.253906 108.234375 321.976562 100.851562 321.667969 C 86.765625 321.050781 73.632812 326.070312 63.886719 335.816406 C 44.40625 355.296875 45.078125 387.660156 65.375 407.960938 C 81.066406 423.652344 98.898438 429.148438 116.1875 429.148438 C 156.363281 429.144531 193.601562 399.453125 194.132812 399.023438 C 199.867188 394.367188 208.316406 395.25 212.972656 400.980469 C 217.308594 406.328125 216.917969 414.019531 212.070312 418.867188 C 211.734375 419.207031 211.378906 419.523438 211.011719 419.820312 C 210.0625 420.59375 187.417969 438.800781 156.453125 449.117188 C 154.574219 449.746094 152.664062 450.339844 150.773438 450.890625 C 122 459.25 95.992188 474.46875 75.550781 494.910156 C 71.648438 498.816406 71.648438 505.148438 75.550781 509.054688 C 77.503906 511.007812 80.0625 511.980469 82.621094 511.980469 C 85.183594 511.980469 87.742188 511.003906 89.695312 509.054688 C 107.757812 490.988281 130.808594 477.519531 156.351562 470.097656 C 158.492188 469.476562 160.652344 468.800781 162.773438 468.09375 C 197.152344 456.640625 222.550781 436.214844 223.613281 435.351562 C 224.511719 434.625 225.378906 433.839844 226.207031 433.015625 C 238.328125 420.894531 239.3125 401.703125 228.5 388.378906 C 228.429688 388.292969 228.351562 388.210938 228.28125 388.125 L 242.128906 374.277344 C 243.445312 376.527344 245.050781 378.613281 246.910156 380.472656 L 247.515625 381.074219 C 259.453125 393.011719 278.875 393.011719 290.8125 381.074219 C 302.75 369.136719 302.75 349.714844 290.8125 337.777344 L 290.207031 337.171875 C 288.347656 335.3125 286.261719 333.707031 284.011719 332.390625 L 300.871094 315.53125 C 303.554688 312.851562 305.308594 309.597656 306.179688 306.160156 C 309.613281 305.289062 312.867188 303.535156 315.550781 300.851562 L 337.59375 278.808594 C 341.382812 275.023438 342.875 269.449219 341.492188 264.269531 C 340.117188 259.117188 336.070312 255.054688 330.929688 253.664062 C 329.128906 253.179688 327.542969 252.261719 326.210938 250.929688 L 325.609375 250.324219 C 321.46875 246.183594 321.46875 239.449219 325.609375 235.308594 C 329.746094 231.171875 336.480469 231.167969 340.621094 235.308594 L 341.226562 235.914062 C 342.558594 237.246094 343.480469 238.832031 343.964844 240.632812 C 345.351562 245.773438 349.414062 249.820312 354.566406 251.195312 C 359.75 252.582031 365.320312 251.082031 369.109375 247.296875 L 388.128906 228.273438 C 388.21875 228.347656 388.304688 228.425781 388.394531 228.5 C 394.582031 233.519531 402.03125 236 409.453125 236 C 418.015625 236 426.539062 232.699219 433.035156 226.207031 C 433.847656 225.390625 434.632812 224.519531 435.367188 223.617188 C 436.230469 222.554688 456.652344 197.164062 468.109375 162.769531 C 468.828125 160.617188 469.5 158.457031 470.113281 156.351562 C 477.535156 130.808594 491.003906 107.757812 509.070312 89.691406 C 512.976562 85.785156 512.976562 79.453125 509.070312 75.550781 Z M 341.667969 99.96875 C 341.296875 91.546875 344.25 83.753906 349.980469 78.023438 C 355.558594 72.445312 363.1875 69.515625 371.34375 69.703125 C 379.738281 69.917969 387.726562 73.402344 393.835938 79.515625 C 433.023438 118.699219 383.988281 180.929688 383.511719 181.523438 C 382.394531 182.898438 381.410156 184.339844 380.546875 185.824219 L 374.5 179.777344 C 376.316406 178.605469 378.007812 177.242188 379.539062 175.714844 L 380.144531 175.109375 C 392.082031 163.171875 392.082031 143.75 380.144531 131.8125 C 374.363281 126.027344 366.671875 122.84375 358.496094 122.84375 C 350.316406 122.84375 342.628906 126.027344 336.851562 131.804688 L 336.242188 132.414062 C 334.710938 133.945312 333.347656 135.636719 332.175781 137.453125 L 325.039062 130.316406 C 335.4375 124.269531 342.230469 112.796875 341.667969 99.96875 Z M 79.519531 393.816406 C 67.015625 381.316406 66.347656 361.640625 78.027344 349.960938 C 83.757812 344.230469 91.582031 341.28125 99.972656 341.648438 C 112.8125 342.226562 124.285156 335.421875 130.328125 325.011719 L 137.710938 332.394531 C 135.429688 333.71875 133.316406 335.34375 131.429688 337.226562 L 130.832031 337.828125 C 125.046875 343.609375 121.863281 351.300781 121.863281 359.476562 C 121.863281 367.65625 125.046875 375.34375 130.828125 381.125 C 142.769531 393.0625 162.1875 393.0625 174.132812 381.117188 L 174.730469 380.519531 C 176.613281 378.636719 178.234375 376.527344 179.5625 374.242188 L 185.835938 380.519531 C 184.355469 381.378906 182.921875 382.359375 181.554688 383.46875 C 180.929688 383.96875 118.710938 433.011719 79.519531 393.816406 Z M 286.730469 301.386719 L 264.6875 323.429688 C 260.898438 327.21875 259.402344 332.792969 260.789062 337.976562 C 262.164062 343.128906 266.210938 347.191406 271.351562 348.574219 C 273.148438 349.058594 274.734375 349.980469 276.066406 351.3125 L 276.671875 351.917969 C 280.8125 356.058594 280.8125 362.792969 276.671875 366.933594 C 272.53125 371.070312 265.796875 371.070312 261.660156 366.933594 L 261.054688 366.324219 C 259.722656 364.996094 258.800781 363.410156 258.316406 361.609375 C 256.929688 356.472656 252.871094 352.425781 247.714844 351.046875 C 242.53125 349.660156 236.960938 351.15625 233.171875 354.945312 L 211.128906 376.988281 C 211.0625 377.054688 210.972656 377.085938 210.882812 377.089844 C 210.835938 377.078125 210.792969 377.0625 210.746094 377.050781 C 210.691406 377.035156 210.632812 377.03125 210.589844 376.988281 L 188.5 354.898438 C 185.644531 352.042969 181.78125 350.488281 177.832031 350.488281 C 176.527344 350.488281 175.21875 350.660156 173.929688 351.007812 C 168.769531 352.394531 164.707031 356.460938 163.339844 361.621094 C 162.863281 363.410156 161.914062 365.054688 160.585938 366.382812 L 159.988281 366.984375 C 155.847656 371.121094 149.113281 371.125 144.972656 366.984375 C 142.964844 364.976562 141.863281 362.3125 141.863281 359.476562 C 141.863281 356.640625 142.964844 353.976562 144.980469 351.964844 L 145.574219 351.363281 C 146.917969 350.023438 148.519531 349.097656 150.335938 348.617188 C 155.492188 347.25 159.558594 343.191406 160.949219 338.027344 C 162.347656 332.839844 160.855469 327.253906 157.058594 323.457031 L 134.988281 301.386719 C 134.839844 301.238281 134.839844 301 134.988281 300.851562 L 157.027344 278.816406 C 157.027344 278.8125 157.03125 278.808594 157.03125 278.808594 C 160.820312 275.019531 162.316406 269.449219 160.929688 264.265625 C 159.554688 259.113281 155.507812 255.050781 150.367188 253.664062 C 148.570312 253.179688 146.984375 252.257812 145.652344 250.925781 L 145.046875 250.320312 C 143.042969 248.316406 141.9375 245.648438 141.9375 242.816406 C 141.9375 239.980469 143.042969 237.3125 145.046875 235.308594 C 147.050781 233.304688 149.71875 232.199219 152.554688 232.199219 C 155.390625 232.199219 158.054688 233.304688 160.058594 235.308594 L 160.664062 235.914062 C 161.996094 237.242188 162.917969 238.832031 163.402344 240.628906 C 164.789062 245.769531 168.847656 249.816406 174.003906 251.191406 C 179.183594 252.570312 184.757812 251.082031 188.546875 247.292969 L 210.589844 225.25 C 210.738281 225.101562 210.980469 225.101562 211.125 225.25 L 227.75 241.875 C 225.9375 243.046875 224.246094 244.414062 222.714844 245.941406 L 222.109375 246.546875 C 210.171875 258.484375 210.171875 277.90625 222.109375 289.84375 C 227.894531 295.625 235.582031 298.8125 243.757812 298.8125 C 251.9375 298.8125 259.625 295.625 265.40625 289.84375 L 266.011719 289.238281 C 267.5625 287.6875 268.921875 286.011719 270.085938 284.210938 L 286.726562 300.851562 C 286.878906 301 286.878906 301.238281 286.730469 301.386719 Z M 360.152344 227.96875 C 358.835938 225.714844 357.230469 223.632812 355.371094 221.773438 L 354.765625 221.167969 C 342.828125 209.230469 323.40625 209.230469 311.46875 221.167969 C 299.53125 233.105469 299.53125 252.527344 311.46875 264.464844 L 312.074219 265.070312 C 313.933594 266.929688 316.019531 268.535156 318.269531 269.851562 L 301.410156 286.710938 C 301.261719 286.855469 301.019531 286.855469 300.871094 286.710938 L 279.316406 265.152344 C 275.597656 261.4375 270.324219 259.9375 265.203125 261.148438 C 260.109375 262.347656 256.085938 266.019531 254.429688 270.972656 C 253.910156 272.53125 253.050781 273.917969 251.871094 275.097656 L 251.265625 275.699219 C 247.128906 279.839844 240.394531 279.839844 236.253906 275.703125 C 232.113281 271.5625 232.113281 264.828125 236.253906 260.6875 L 236.859375 260.082031 C 238.039062 258.902344 239.425781 258.042969 240.984375 257.523438 C 245.933594 255.867188 249.609375 251.839844 250.808594 246.75 C 252.015625 241.628906 250.515625 236.351562 246.800781 232.636719 L 225.269531 211.109375 C 225.121094 210.960938 225.121094 210.71875 225.269531 210.570312 L 247.3125 188.527344 C 251.101562 184.738281 252.597656 179.167969 251.210938 173.984375 C 249.835938 168.832031 245.785156 164.769531 240.648438 163.382812 C 238.851562 162.898438 237.265625 161.976562 235.933594 160.644531 L 235.328125 160.039062 C 231.1875 155.902344 231.1875 149.167969 235.324219 145.027344 C 239.464844 140.890625 246.199219 140.886719 250.339844 145.027344 L 250.945312 145.632812 C 252.277344 146.964844 253.199219 148.550781 253.683594 150.347656 C 255.070312 155.484375 259.128906 159.535156 264.28125 160.910156 C 269.464844 162.296875 275.035156 160.800781 278.828125 157.011719 L 300.871094 134.96875 C 301.019531 134.820312 301.257812 134.820312 301.40625 134.96875 L 322.9375 156.5 C 326.65625 160.21875 331.933594 161.714844 337.054688 160.507812 C 342.144531 159.304688 346.171875 155.632812 347.824219 150.683594 C 348.34375 149.125 349.203125 147.738281 350.378906 146.5625 L 350.988281 145.953125 C 352.992188 143.949219 355.660156 142.84375 358.496094 142.84375 C 361.332031 142.84375 363.996094 143.949219 366 145.953125 C 368.007812 147.960938 369.109375 150.625 369.109375 153.460938 C 369.109375 156.296875 368.007812 158.960938 366 160.96875 L 365.398438 161.570312 C 364.21875 162.75 362.828125 163.609375 361.269531 164.132812 C 356.320312 165.785156 352.648438 169.8125 351.445312 174.902344 C 350.238281 180.023438 351.738281 185.300781 355.453125 189.019531 L 377.007812 210.574219 C 377.046875 210.613281 377.050781 210.667969 377.070312 210.71875 C 377.082031 210.769531 377.097656 210.820312 377.109375 210.871094 C 377.101562 210.957031 377.074219 211.042969 377.007812 211.109375 Z M 360.152344 227.96875 " style=" stroke:none;fill-rule:nonzero;fill:rgb(0%,0%,0%);fill-opacity:1;"/><path d="M 113.519531 127.664062 C 115.472656 129.617188 118.03125 130.59375 120.589844 130.59375 C 123.148438 130.59375 125.707031 129.617188 127.660156 127.664062 C 131.566406 123.757812 131.566406 117.425781 127.660156 113.519531 L 90.386719 76.246094 C 86.480469 72.339844 80.148438 72.339844 76.242188 76.246094 C 72.335938 80.148438 72.335938 86.480469 76.242188 90.386719 Z M 113.519531 127.664062 " style=" stroke:none;fill-rule:nonzero;fill:rgb(0%,0%,0%);fill-opacity:1;"/><path d="M 145.738281 155.738281 C 148.371094 155.738281 150.949219 154.675781 152.808594 152.808594 C 154.667969 150.949219 155.738281 148.367188 155.738281 145.738281 C 155.738281 143.109375 154.667969 140.539062 152.808594 138.667969 C 150.949219 136.808594 148.371094 135.738281 145.738281 135.738281 C 143.109375 135.738281 140.53125 136.808594 138.667969 138.667969 C 136.808594 140.527344 135.738281 143.109375 135.738281 145.738281 C 135.738281 148.378906 136.808594 150.949219 138.667969 152.808594 C 140.53125 154.675781 143.109375 155.738281 145.738281 155.738281 Z M 145.738281 155.738281 " style=" stroke:none;fill-rule:nonzero;fill:rgb(0%,0%,0%);fill-opacity:1;"/><path d="M 65.074219 184.925781 C 65.078125 184.925781 65.078125 184.925781 65.078125 184.925781 L 95.050781 184.914062 C 100.574219 184.910156 105.046875 180.433594 105.046875 174.910156 C 105.042969 169.386719 100.566406 164.914062 95.046875 164.914062 C 95.042969 164.914062 95.042969 164.914062 95.042969 164.914062 L 65.070312 164.925781 C 59.546875 164.929688 55.074219 169.40625 55.074219 174.929688 C 55.078125 180.449219 59.554688 184.925781 65.074219 184.925781 Z M 65.074219 184.925781 " style=" stroke:none;fill-rule:nonzero;fill:rgb(0%,0%,0%);fill-opacity:1;"/><path d="M 174.96875 106.96875 C 174.96875 106.96875 174.972656 106.96875 174.972656 106.96875 C 180.492188 106.964844 184.96875 102.484375 184.96875 96.964844 L 184.953125 65.074219 C 184.953125 59.554688 180.476562 55.078125 174.953125 55.078125 C 174.953125 55.078125 174.953125 55.078125 174.949219 55.078125 C 169.429688 55.082031 164.953125 59.558594 164.953125 65.082031 L 164.96875 96.972656 C 164.96875 102.492188 169.445312 106.96875 174.96875 106.96875 Z M 174.96875 106.96875 " style=" stroke:none;fill-rule:nonzero;fill:rgb(0%,0%,0%);fill-opacity:1;"/><path d="M 398.480469 384.296875 C 394.574219 380.390625 388.246094 380.390625 384.335938 384.296875 C 380.433594 388.199219 380.433594 394.53125 384.335938 398.4375 L 421.613281 435.714844 C 423.566406 437.667969 426.125 438.644531 428.683594 438.644531 C 431.242188 438.644531 433.804688 437.667969 435.753906 435.714844 C 439.660156 431.808594 439.660156 425.476562 435.753906 421.570312 Z M 398.480469 384.296875 " style=" stroke:none;fill-rule:nonzero;fill:rgb(0%,0%,0%);fill-opacity:1;"/><path d="M 365.007812 354.96875 C 362.378906 354.96875 359.800781 356.039062 357.941406 357.898438 C 356.082031 359.757812 355.007812 362.335938 355.007812 364.96875 C 355.007812 367.597656 356.078125 370.175781 357.941406 372.039062 C 359.800781 373.898438 362.378906 374.96875 365.007812 374.96875 C 367.640625 374.96875 370.21875 373.898438 372.078125 372.039062 C 373.9375 370.175781 375.007812 367.597656 375.007812 364.96875 C 375.007812 362.335938 373.941406 359.757812 372.078125 357.898438 C 370.21875 356.039062 367.640625 354.96875 365.007812 354.96875 Z M 365.007812 354.96875 " style=" stroke:none;fill-rule:nonzero;fill:rgb(0%,0%,0%);fill-opacity:1;"/><path d="M 446.921875 327.035156 C 446.921875 327.035156 446.921875 327.035156 446.917969 327.035156 L 416.949219 327.046875 C 411.425781 327.050781 406.953125 331.527344 406.953125 337.050781 C 406.957031 342.570312 411.433594 347.046875 416.953125 347.046875 C 416.953125 347.046875 416.957031 347.046875 416.957031 347.046875 L 446.929688 347.035156 C 452.449219 347.03125 456.925781 342.554688 456.921875 337.03125 C 456.921875 331.507812 452.445312 327.035156 446.921875 327.035156 Z M 446.921875 327.035156 " style=" stroke:none;fill-rule:nonzero;fill:rgb(0%,0%,0%);fill-opacity:1;"/><path d="M 337.03125 404.992188 C 337.03125 404.992188 337.027344 404.992188 337.027344 404.992188 C 331.503906 404.996094 327.03125 409.472656 327.03125 414.996094 L 327.042969 446.886719 C 327.046875 452.40625 331.523438 456.882812 337.042969 456.882812 C 337.046875 456.882812 337.046875 456.882812 337.046875 456.882812 C 342.570312 456.878906 347.046875 452.402344 347.042969 446.878906 L 347.03125 414.988281 C 347.03125 409.46875 342.554688 404.992188 337.03125 404.992188 Z M 337.03125 404.992188 " style=" stroke:none;fill-rule:nonzero;fill:rgb(0%,0%,0%);fill-opacity:1;"/></symbol><symbol id="monitor" viewBox="0 -16 480 480"><title>monitor</title><path d="m176 96v-24c-.027344-22.082031-17.917969-39.972656-40-40h-16c-22.082031.027344-39.972656 17.917969-40 40v24c0 26.507812 21.492188 48 48 48s48-21.492188 48-48zm-56-48h16c13.253906 0 24 10.746094 24 24h-14.113281c-7.925781.015625-15.171875-4.472656-18.6875-11.574219-1.503907-2.523437-4.222657-4.070312-7.160157-4.070312-2.933593 0-5.65625 1.546875-7.160156 4.070312l-3.574218 7.148438c-1.34375 2.722656-4.121094 4.4375-7.152344 4.425781h-6.152344c0-13.253906 10.746094-24 24-24zm8 80c-17.671875 0-32-14.328125-32-32v-8h6.113281c7.488281.03125 14.554688-3.464844 19.078125-9.433594 6.777344 6.101563 15.578125 9.460938 24.695313 9.433594h14.113281v8c0 17.671875-14.328125 32-32 32zm0 0"/><path d="m64 256h128c8.835938 0 16-7.164062 16-16v-40c-.039062-30.910156-25.089844-55.960938-56-56h-48c-30.910156.039062-55.960938 25.089844-56 56v40c0 8.835938 7.164062 16 16 16zm128-56v40h-56v-30.398438l21.054688-49.121093c19.933593 2.503906 34.902343 19.429687 34.945312 39.519531zm-52.136719-40-11.863281 27.6875-11.863281-27.6875zm-75.863281 40c.0625-20.078125 15.023438-36.984375 34.945312-39.488281l21.054688 49.089843v30.398438h-56zm0 0"/><path d="m160 200h16v16h-16zm0 0"/><path d="m392 67.3125v60.6875h16v-60.6875l8.96875 8.96875 11.3125-11.3125-22.625-22.625c-3.125-3.121094-8.1875-3.121094-11.3125 0l-22.625 22.625 11.3125 11.3125zm0 0"/><path d="m400 248c2.121094 0 4.15625-.84375 5.65625-2.34375l22.625-22.625-11.3125-11.3125-8.96875 8.96875v-60.6875h-16v60.6875l-8.96875-8.96875-11.3125 11.3125 22.625 22.625c1.5 1.5 3.535156 2.34375 5.65625 2.34375zm0 0"/><path d="m240 48h48v16h-48zm0 0"/><path d="m240 80h96v16h-96zm0 0"/><path d="m240 128h48v16h-48zm0 0"/><path d="m240 160h96v16h-96zm0 0"/><path d="m240 208h48v16h-48zm0 0"/><path d="m240 240h96v16h-96zm0 0"/><path d="m304 128h16v16h-16zm0 0"/><path d="m304 208h32v16h-32zm0 0"/><path d="m456 0h-432c-13.253906 0-24 10.746094-24 24v304c0 13.253906 10.746094 24 24 24h142.9375l-6 48h-8.9375c-4.417969 0-8 3.582031-8 8v24h-32v16h256v-16h-32v-24c0-4.417969-3.582031-8-8-8h-8.9375l-6-48h142.9375c13.253906 0 24-10.746094 24-24v-304c0-13.253906-10.746094-24-24-24zm-432 16h432c4.417969 0 8 3.582031 8 8v248h-448v-248c0-4.417969 3.582031-8 8-8zm296 416h-160v-16h160zm-17.0625-32h-125.875l6-48h113.875zm153.0625-64h-432c-4.417969 0-8-3.582031-8-8v-40h448v40c0 4.417969-3.582031 8-8 8zm0 0"/><path d="m400 304h32v16h-32zm0 0"/></symbol><symbol id="monitor-1" viewBox="0 -16 480 480"><title>monitor-1</title><path d="m472 23.839844v256.160156h-464v-256.160156c.023438-8.738282 7.101562-15.816406 15.839844-15.839844h432.320312c8.746094 0 15.839844 7.09375 15.839844 15.839844zm0 0" fill="#78b9eb"/><path d="m472 23.839844v256.160156h-397.199219c98.640625-36.71875 234.71875-113.679688 321.679688-272h59.679687c8.746094 0 15.839844 7.09375 15.839844 15.839844zm0 0" fill="#5aaae7"/><path d="m8 280v48.160156c.023438 8.738282 7.101562 15.816406 15.839844 15.839844h432.320312c8.738282-.023438 15.816406-7.101562 15.839844-15.839844v-48.160156zm0 0" fill="#c6c5ca"/><path d="m312 408h-144l8-64h128zm0 0" fill="#898890"/><path d="m152 408v32h176v-32zm0 0" fill="#787680"/><path d="m39.839844 8c-8.738282.023438-15.816406 7.101562-15.839844 15.839844v256.160156h-16v-256.160156c.023438-8.738282 7.101562-15.816406 15.839844-15.839844zm0 0" fill="#5aaae7"/><path d="m39.839844 344h-16c-8.738282-.023438-15.816406-7.101562-15.839844-15.839844v-48.160156h16v48.160156c.023438 8.738282 7.101562 15.816406 15.839844 15.839844zm0 0" fill="#acabb1"/><path d="m192 344-8 64h-16l8-64zm0 0" fill="#787680"/><path d="m152 408h16v32h-16zm0 0" fill="#57565c"/><path d="m116.425781 71.152344 3.574219-7.152344c4.902344 9.804688 14.925781 16 25.886719 16h22.113281v-8c0-17.671875-14.328125-32-32-32h-16c-17.671875 0-32 14.328125-32 32v8h14.113281c6.058594 0 11.601563-3.425781 14.3125-8.847656zm0 0" fill="#787680"/><path d="m128 136c22.089844 0 40-17.910156 40-40v-16h-22.113281c-10.960938 0-20.984375-6.195312-25.886719-16l-3.574219 7.152344c-2.710937 5.421875-8.253906 8.847656-14.3125 8.847656h-14.113281v16c0 22.089844 17.910156 40 40 40zm0 0" fill="#ffdaaa"/><path d="m152 152-24 56v40h64c4.417969 0 8-3.582031 8-8v-40c0-26.507812-21.492188-48-48-48zm0 0" fill="#00ccb3"/><path d="m104 152c-26.507812 0-48 21.492188-48 48v40c0 4.417969 3.582031 8 8 8h64v-40zm0 0" fill="#00eed1"/><path d="m152 152h-48l24 56zm0 0" fill="#ffc477"/><path d="m306 360h-132l2-16h128zm0 0" fill="#787680"/><path d="m176 96v-24c-.027344-22.082031-17.917969-39.972656-40-40h-16c-22.082031.027344-39.972656 17.917969-40 40v24c0 26.507812 21.492188 48 48 48s48-21.492188 48-48zm-56-48h16c13.253906 0 24 10.746094 24 24h-14.113281c-7.925781.015625-15.171875-4.472656-18.6875-11.574219-1.503907-2.523437-4.222657-4.070312-7.160157-4.070312-2.933593 0-5.65625 1.546875-7.160156 4.070312l-3.574218 7.148438c-1.34375 2.722656-4.121094 4.4375-7.152344 4.425781h-6.152344c0-13.253906 10.746094-24 24-24zm8 80c-17.671875 0-32-14.328125-32-32v-8h6.113281c7.488281.03125 14.554688-3.464844 19.078125-9.433594 6.777344 6.101563 15.578125 9.460938 24.695313 9.433594h14.113281v8c0 17.671875-14.328125 32-32 32zm0 0"/><path d="m64 256h128c8.835938 0 16-7.164062 16-16v-40c-.039062-30.910156-25.089844-55.960938-56-56h-48c-30.910156.039062-55.960938 25.089844-56 56v40c0 8.835938 7.164062 16 16 16zm128-56v40h-56v-30.398438l21.054688-49.121093c19.933593 2.503906 34.902343 19.429687 34.945312 39.519531zm-52.136719-40-11.863281 27.6875-11.863281-27.6875zm-75.863281 40c.0625-20.078125 15.023438-36.984375 34.945312-39.488281l21.054688 49.089843v30.398438h-56zm0 0"/><path d="m160 200h16v16h-16zm0 0"/><path d="m392 67.3125v60.6875h16v-60.6875l8.96875 8.96875 11.3125-11.3125-22.625-22.625c-3.125-3.121094-8.1875-3.121094-11.3125 0l-22.625 22.625 11.3125 11.3125zm0 0"/><path d="m400 248c2.121094 0 4.15625-.84375 5.65625-2.34375l22.625-22.625-11.3125-11.3125-8.96875 8.96875v-60.6875h-16v60.6875l-8.96875-8.96875-11.3125 11.3125 22.625 22.625c1.5 1.5 3.535156 2.34375 5.65625 2.34375zm0 0"/><path d="m240 48h48v16h-48zm0 0"/><path d="m240 80h96v16h-96zm0 0"/><path d="m240 128h48v16h-48zm0 0"/><path d="m240 160h96v16h-96zm0 0"/><path d="m240 208h48v16h-48zm0 0"/><path d="m240 240h96v16h-96zm0 0"/><path d="m304 128h16v16h-16zm0 0"/><path d="m304 208h32v16h-32zm0 0"/><path d="m456 0h-432c-13.253906 0-24 10.746094-24 24v304c0 13.253906 10.746094 24 24 24h142.9375l-6 48h-8.9375c-4.417969 0-8 3.582031-8 8v24h-32v16h256v-16h-32v-24c0-4.417969-3.582031-8-8-8h-8.9375l-6-48h142.9375c13.253906 0 24-10.746094 24-24v-304c0-13.253906-10.746094-24-24-24zm-432 16h432c4.417969 0 8 3.582031 8 8v248h-448v-248c0-4.417969 3.582031-8 8-8zm296 416h-160v-16h160zm-17.0625-32h-125.875l6-48h113.875zm153.0625-64h-432c-4.417969 0-8-3.582031-8-8v-40h448v40c0 4.417969-3.582031 8-8 8zm0 0"/><path d="m400 304h32v16h-32zm0 0"/></symbol><symbol id="feedback" viewBox="0 -8 480 480"><title>feedback</title><path d="m136 24-56 56v360h320v-416zm0 0" fill="#5da364"/><path d="m8 440h72l11.199219 11.199219c3.199219 3.199219 7.199219 4.800781 11.199219 4.800781h73.601562c8.800781 0 16-7.199219 16-16v-96c0-8.800781-7.199219-16-16-16h-40l14.398438-33.601562c3.203124-8 0-17.597657-8.796876-20.796876-1.601562-.800781-4-1.601562-5.601562-1.601562h-6.398438c-5.601562 0-11.203124 3.199219-13.601562 8l-36 64h-72zm0 0" fill="#efccbf"/><path d="m8 344h72v96h-72zm0 0" fill="#4a4a56"/><path d="m144 352h48v16h-48zm0 0" fill="#d8b4ad"/><path d="m144 384h48v16h-48zm0 0" fill="#d8b4ad"/><path d="m144 416h48v16h-48zm0 0" fill="#d8b4ad"/><path d="m40 344h16v64h-16zm0 0" fill="#676b7f"/><path d="m472 24h-72l-11.199219-11.199219c-3.199219-3.199219-7.199219-4.800781-11.199219-4.800781h-73.601562c-8.800781 0-16 7.199219-16 16v96c0 8.800781 7.199219 16 16 16h40l-14.398438 33.601562c-3.203124 8 0 17.597657 8.796876 20.796876 1.601562.800781 4 1.601562 6.402343 1.601562h6.398438c5.601562 0 11.199219-3.199219 13.601562-8l35.199219-64h72zm0 0" fill="#efccbf"/><path d="m400 24h72v96h-72zm0 0" fill="#4a4a56"/><path d="m288 96h48v16h-48zm0 0" fill="#d8b4ad"/><path d="m288 64h48v16h-48zm0 0" fill="#d8b4ad"/><path d="m288 32h48v16h-48zm0 0" fill="#d8b4ad"/><path d="m424 56h16v64h-16zm0 0" fill="#676b7f"/><path d="m472 400-35.199219-35.199219c-3.199219-3.199219-7.199219-4.800781-11.199219-4.800781h-185.601562c-8.800781 0-16-7.199219-16-16v-96c0-8.800781 7.199219-16 16-16h216c8.800781 0 16 7.199219 16 16zm0 0" fill="#f7d289"/><path d="m256 256h184v16h-184zm0 0" fill="#d3af6e"/><path d="m256 288h184v16h-184zm0 0" fill="#d3af6e"/><path d="m256 320h160v16h-160zm0 0" fill="#d3af6e"/><g fill="#538457"><path d="m168 72h88v16h-88zm0 0"/><path d="m112 112h144v16h-144zm0 0"/><path d="m112 152h144v16h-144zm0 0"/><path d="m112 192h184v16h-184zm0 0"/><path d="m80 80h56v-56zm0 0"/><path d="m112 232h80v16h-80zm0 0"/><path d="m224 392h144v16h-144zm0 0"/></g><path d="m403.199219 16-8.800781-8.800781c-4.796876-4.800781-10.398438-7.199219-16.796876-7.199219h-73.601562c-10.398438 0-19.199219 6.398438-22.398438 16h-148.800781l-60.800781 60.800781v211.199219h16v-200h56v-56h136v88c0 13.601562 10.398438 24 24 24h28l-9.601562 22.398438c-5.597657 12 .800781 26.402343 12.800781 31.203124 3.199219 1.597657 6.402343 1.597657 9.601562 1.597657h6.398438c8.800781 0 16.800781-4.800781 20.800781-12l32.800781-60h75.199219v-111.199219zm-304 56 28.800781-28.800781v28.800781zm258.402343 108c-1.601562 2.398438-4 4-7.203124 4h-6.398438c-4.800781 0-8-3.199219-8-8 0-.800781 0-2.398438.800781-3.199219l19.199219-44.800781h-52c-4.800781 0-8-3.199219-8-8v-8h40v-16h-40v-16h40v-16h-40v-16h40v-16h-40v-8c0-4.800781 3.199219-8 8-8h73.601562c2.398438 0 4 .800781 5.597657 2.398438l8.800781 8.800781v90.402343zm106.398438-68h-24v-56h-16v56h-16v-80h56zm0 0"/><path d="m456 224h-48v-48h-16v48h-152c-13.601562 0-24 10.398438-24 24v96c0 13.601562 10.398438 24 24 24h152v64h-192v-88c0-13.601562-10.398438-24-24-24h-28l9.601562-22.398438c5.597657-12-.800781-26.402343-12.800781-31.203124-2.402343-1.597657-5.601562-2.398438-8.800781-2.398438h-6.398438c-8.800781 0-16.800781 4.800781-20.800781 12l-33.601562 60h-75.199219v112h76.800781l8.800781 8.800781c4.796876 4.800781 10.398438 7.199219 16.796876 7.199219h73.601562c10.398438 0 19.199219-6.398438 22.398438-16h209.601562v-80h17.601562c2.398438 0 4 .800781 5.597657 2.398438l48.800781 48.800781v-171.199219c0-13.601562-10.398438-24-24-24zm-440 128h24v56h16v-56h16v80h-56zm160 96h-73.601562c-2.398438 0-4-.800781-5.597657-2.398438l-8.800781-8.800781v-90.402343l34.398438-61.597657c1.601562-2.402343 4-4 7.203124-4h6.398438c4.800781 0 8 3.199219 8 8 0 .800781 0 2.398438-.800781 3.199219l-19.199219 44h52c4.800781 0 8 3.199219 8 8v8h-40v16h40v16h-40v16h40v16h-40v16h40v8c0 4.800781-3.199219 8-8 8zm288-67.199219-21.601562-21.601562c-4.796876-4.800781-10.398438-7.199219-16.796876-7.199219h-185.601562c-4.800781 0-8-3.199219-8-8v-96c0-4.800781 3.199219-8 8-8h216c4.800781 0 8 3.199219 8 8zm0 0"/><path d="m256 256h184v16h-184zm0 0"/><path d="m256 288h184v16h-184zm0 0"/><path d="m256 320h160v16h-160zm0 0"/><path d="m168 72h88v16h-88zm0 0"/><path d="m112 112h144v16h-144zm0 0"/><path d="m112 152h144v16h-144zm0 0"/><path d="m112 192h184v16h-184zm0 0"/><path d="m112 232h80v16h-80zm0 0"/><path d="m224 392h144v16h-144zm0 0"/></symbol><symbol id="money" viewBox="0 0 64 64"><title>money</title><path d="m21 21h-4c-2.206 0-4-1.794-4-4h2c0 1.103.897 2 2 2h2v-2c0-1.103-.897-2-2-2-2.206 0-4-1.794-4-4v-4h4c2.206 0 4 1.794 4 4h-2c0-1.103-.897-2-2-2h-2v2c0 1.103.897 2 2 2 2.206 0 4 1.794 4 4z"/><path d="m16 5h2v3h-2z"/><path d="m16 20h2v3h-2z"/><path d="m51 23h-28v-18h28zm-26-2h24v-14h-24z"/><path d="m27 9h20v10h-20z" fill="#f0bc5e"/><path d="m27 9h2v2h-2z"/><path d="m31 9h16v2h-16z"/><path d="m27 13h2v2h-2z"/><path d="m31 13h16v2h-16z"/><path d="m27 17h2v2h-2z"/><path d="m31 17h16v2h-16z"/><path d="m13 27h10v9h-10z" fill="#f0bc5e"/><path d="m13 27h2v2h-2z"/><path d="m17 27h2v2h-2z"/><path d="m21 27h2v2h-2z"/><path d="m13 31h10v2h-10z"/><path d="m13 35h10v2h-10z"/><path d="m55 53v-47c0-2.757-2.243-5-5-5h-44c-2.757 0-5 2.243-5 5v27h8v25c0 2.757 2.243 5 5 5h44c2.757 0 5-2.243 5-5v-5zm-46-22h-6v-25c0-1.654 1.346-3 3-3s3 1.346 3 3zm8 27c0 1.654-1.346 3-3 3s-3-1.346-3-3v-52c0-1.13-.391-2.162-1.026-3h40.026c1.654 0 3 1.346 3 3v47h-2v-16h-6v16h-2v-12h-6v12h-2v-10h-6v10h-2v-6h-6v6h-4zm32-5h-2v-14h2zm-8 0h-2v-10h2zm-8 0h-2v-8h2zm-8 0h-2v-4h2zm36 5c0 1.654-1.346 3-3 3h-40.002c.629-.836 1.002-1.875 1.002-3v-3h42z"/><path d="m34 35.414 4 4 7.707-7.707-1.414-1.414-6.293 6.293-4-4-10.707 10.707 1.414 1.414z"/><path d="m57 57h2v2h-2z"/><path d="m53 57h2v2h-2z"/><path d="m49 57h2v2h-2z"/><path d="m5 27h2v2h-2z"/><path d="m5 23h2v2h-2z"/><path d="m5 19h2v2h-2z"/><path d="m48.542 35.956-8.498-8.498 11.33-2.832z" fill="#f0bc5e"/></symbol><symbol id="statement" viewBox="0 0 64 64"><title>statement</title><path d="m55 53v-47c0-2.757-2.243-5-5-5h-44c-2.757 0-5 2.243-5 5v27h8v25c0 2.757 2.243 5 5 5h44c2.757 0 5-2.243 5-5v-5zm-46-22h-6v-25c0-1.654 1.346-3 3-3s3 1.346 3 3zm8 27c0 1.654-1.346 3-3 3s-3-1.346-3-3v-52c0-1.13-.391-2.162-1.026-3h40.026c1.654 0 3 1.346 3 3v47h-2v-16h-6v16h-2v-12h-6v12h-2v-10h-6v10h-2v-6h-6v6h-4zm32-5h-2v-14h2zm-8 0h-2v-10h2zm-8 0h-2v-8h2zm-8 0h-2v-4h2zm36 5c0 1.654-1.346 3-3 3h-40.002c.629-.836 1.002-1.875 1.002-3v-3h42z"/><path d="m17 19c-1.103 0-2-.897-2-2h-2c0 1.859 1.279 3.411 3 3.858v2.142h2v-2h3v-4c0-2.206-1.794-4-4-4-1.103 0-2-.897-2-2v-2h2c1.103 0 2 .897 2 2h2c0-1.859-1.279-3.411-3-3.858v-2.142h-2v2h-3v4c0 2.206 1.794 4 4 4 1.103 0 2 .897 2 2v2z"/><path d="m51 5h-28v18h28zm-2 16h-24v-14h24z"/><path d="m27 9h2v2h-2z"/><path d="m31 9h16v2h-16z"/><path d="m27 13h2v2h-2z"/><path d="m31 13h16v2h-16z"/><path d="m27 17h2v2h-2z"/><path d="m31 17h16v2h-16z"/><path d="m43.586 31-5.586 5.586-4-4-10.707 10.707 1.414 1.414 9.293-9.293 4 4 7-7 3.542 3.542 2.832-11.33-11.33 2.832zm3.872 1.044-3.502-3.502 4.67-1.168z"/><path d="m13 27h2v2h-2z"/><path d="m17 27h2v2h-2z"/><path d="m21 27h2v2h-2z"/><path d="m13 31h10v2h-10z"/><path d="m13 35h10v2h-10z"/><path d="m57 57h2v2h-2z"/><path d="m53 57h2v2h-2z"/><path d="m49 57h2v2h-2z"/><path d="m5 27h2v2h-2z"/><path d="m5 23h2v2h-2z"/><path d="m5 19h2v2h-2z"/></symbol><symbol id="feedback-1" viewBox="0 -8 480 480"><title>feedback-1</title><path d="m394.398438 7.199219c-4.796876-4.800781-10.398438-7.199219-16.796876-7.199219h-73.601562c-10.398438 0-19.199219 6.398438-22.398438 16h-148.800781l-60.800781 60.800781v211.199219h16v-200h56v-56h136v88c0 13.601562 10.398438 24 24 24h28l-9.601562 22.398438c-5.597657 12 .800781 26.402343 12.800781 31.203124 3.199219 1.597657 6.402343 1.597657 9.601562 1.597657h6.398438c8.800781 0 16.800781-4.800781 20.800781-12l32.800781-60h75.199219v-111.199219h-76.800781zm-295.199219 64.800781 28.800781-28.800781v28.800781zm258.402343 108c-1.601562 2.398438-4 4-7.203124 4h-6.398438c-4.800781 0-8-3.199219-8-8 0-.800781 0-2.398438.800781-3.199219l19.199219-44.800781h-52c-4.800781 0-8-3.199219-8-8v-8h40v-16h-40v-16h40v-16h-40v-16h40v-16h-40v-8c0-4.800781 3.199219-8 8-8h73.601562c2.398438 0 4 .800781 5.597657 2.398438l8.800781 8.800781v90.402343zm106.398438-68h-24v-56h-16v56h-16v-80h56zm0 0"/><path d="m456 224h-48v-48h-16v48h-152c-13.601562 0-24 10.398438-24 24v96c0 13.601562 10.398438 24 24 24h152v64h-192v-88c0-13.601562-10.398438-24-24-24h-28l9.601562-22.398438c5.597657-12-.800781-26.402343-12.800781-31.203124-2.402343-1.597657-5.601562-2.398438-8.800781-2.398438h-6.398438c-8.800781 0-16.800781 4.800781-20.800781 12l-33.601562 60h-75.199219v112h76.800781l8.800781 8.800781c4.796876 4.800781 10.398438 7.199219 16.796876 7.199219h73.601562c10.398438 0 19.199219-6.398438 22.398438-16h209.601562v-80h17.601562c2.398438 0 4 .800781 5.597657 2.398438l48.800781 48.800781v-171.199219c0-13.601562-10.398438-24-24-24zm-440 128h24v56h16v-56h16v80h-56zm160 96h-73.601562c-2.398438 0-4-.800781-5.597657-2.398438l-8.800781-8.800781v-90.402343l34.398438-61.597657c1.601562-2.402343 4-4 7.203124-4h6.398438c4.800781 0 8 3.199219 8 8 0 .800781 0 2.398438-.800781 3.199219l-19.199219 44h52c4.800781 0 8 3.199219 8 8v8h-40v16h40v16h-40v16h40v16h-40v16h40v8c0 4.800781-3.199219 8-8 8zm288-67.199219-21.601562-21.601562c-4.796876-4.800781-10.398438-7.199219-16.796876-7.199219h-185.601562c-4.800781 0-8-3.199219-8-8v-96c0-4.800781 3.199219-8 8-8h216c4.800781 0 8 3.199219 8 8zm0 0"/><path d="m256 256h184v16h-184zm0 0"/><path d="m256 288h184v16h-184zm0 0"/><path d="m256 320h160v16h-160zm0 0"/><path d="m168 72h88v16h-88zm0 0"/><path d="m112 112h144v16h-144zm0 0"/><path d="m112 152h144v16h-144zm0 0"/><path d="m112 192h184v16h-184zm0 0"/><path d="m112 232h80v16h-80zm0 0"/><path d="m224 392h144v16h-144zm0 0"/></symbol></svg>